<svg width="19" height="19" viewBox="0 0 19 19" fill="none" xmlns="http://www.w3.org/2000/svg">
<g id="vuesax/bold/facebook">
<g id="facebook">
<path id="Vector" d="M16.7406 12.8815C16.7406 15.5778 15.1332 17.1852 12.4369 17.1852H11.5554C11.148 17.1852 10.8147 16.8518 10.8147 16.4444V12.1704C10.8147 11.9704 10.9776 11.8 11.1776 11.8L12.4813 11.7778C12.585 11.7704 12.6739 11.6963 12.6962 11.5926L12.9554 10.1778C12.9776 10.0444 12.8739 9.91851 12.7332 9.91851L11.1554 9.94073C10.948 9.94073 10.785 9.77778 10.7776 9.57778L10.748 7.76295C10.748 7.64443 10.8443 7.54074 10.9702 7.54074L12.748 7.5111C12.8739 7.5111 12.9702 7.41482 12.9702 7.28889L12.9406 5.51109C12.9406 5.38517 12.8443 5.28888 12.7184 5.28888L10.7184 5.31852C9.48874 5.34074 8.51098 6.34814 8.5332 7.57777L8.57023 9.6148C8.57763 9.82221 8.41468 9.98518 8.20727 9.99259L7.31837 10.0074C7.19245 10.0074 7.09616 10.1037 7.09616 10.2296L7.11838 11.637C7.11838 11.763 7.21467 11.8592 7.34059 11.8592L8.22949 11.8444C8.4369 11.8444 8.59985 12.0074 8.60725 12.2074L8.67392 16.4296C8.68133 16.8444 8.34799 17.1852 7.93318 17.1852H6.22948C3.53319 17.1852 1.92578 15.5778 1.92578 12.8741V6.67406C1.92578 3.97777 3.53319 2.37036 6.22948 2.37036H12.4369C15.1332 2.37036 16.7406 3.97777 16.7406 6.67406V12.8815Z" fill="black"/>
</g>
</g>
</svg>
