<svg width="190" height="171" viewBox="0 0 190 171" fill="none" xmlns="http://www.w3.org/2000/svg">
<path fill-rule="evenodd" clip-rule="evenodd" d="M95.458 0.230871C115.259 2.25609 127.547 21.9958 143.455 34.3715C159.017 46.4788 180.773 52.8924 187.473 71.8164C194.225 90.8893 186.27 112.214 177.434 130.351C169.551 146.53 156.791 159.97 140.864 167.481C126.737 174.144 110.981 168.892 95.458 169.014C79.7691 169.137 64.2354 173.912 49.5487 168.198C31.4981 161.176 12.1388 151.662 4.15054 133.49C-4.09587 114.731 1.44123 92.8126 7.82787 73.2915C14.1474 53.9755 24.6979 36.585 40.0393 23.7943C55.9835 10.501 75.0863 -1.8527 95.458 0.230871Z" fill="#796ACD" fill-opacity="0.63"/>
<path fill-rule="evenodd" clip-rule="evenodd" d="M95.3953 12.1985C112.487 13.9394 123.093 30.9087 136.824 41.5474C150.257 51.9554 169.036 57.4689 174.819 73.7369C180.647 90.1329 173.78 108.465 166.153 124.056C159.349 137.964 148.335 149.518 134.588 155.975C122.394 161.703 108.794 157.188 95.3953 157.293C81.8533 157.399 68.4453 161.504 55.7683 156.592C40.1878 150.554 23.4777 142.376 16.5826 126.755C9.46462 110.629 14.244 91.7863 19.7567 75.005C25.2114 58.4 34.3182 43.4503 47.5602 32.4548C61.3226 21.0272 77.8114 10.4073 95.3953 12.1985Z" fill="#796ACD" fill-opacity="0.63"/>
</svg>
