<svg width="190" height="164" viewBox="0 0 190 164" fill="none" xmlns="http://www.w3.org/2000/svg">
<path fill-rule="evenodd" clip-rule="evenodd" d="M93.9388 5.41854C109.097 2.78361 124.539 -2.87077 139.186 1.76961C154.809 6.7195 167.839 18.1695 176.76 31.658C185.894 45.469 190.812 62.0098 189.89 78.4346C188.989 94.4781 181.67 109.59 171.668 122.336C162.352 134.208 148.552 141.045 135.126 148.221C121.976 155.251 108.866 165.175 93.9388 163.886C79.179 162.612 68.7205 149.991 56.7442 141.456C45.9608 133.772 35.8288 126.039 27.0448 116.216C16.5674 104.499 2.49443 93.865 0.389084 78.4346C-1.749 62.7643 5.13496 46.1582 15.8742 34.3444C26.0793 23.1183 42.7508 21.3576 57.112 16.0363C69.2873 11.5248 81.1201 7.64677 93.9388 5.41854Z" fill="#796ACD" fill-opacity="0.63"/>
<path fill-rule="evenodd" clip-rule="evenodd" d="M94.0728 14.7577C107.316 12.4441 120.808 7.47932 133.604 11.5538C147.254 15.9001 158.638 25.9537 166.432 37.7972C174.413 49.924 178.71 64.4476 177.904 78.8694C177.117 92.9564 170.722 106.226 161.984 117.417C153.844 127.841 141.788 133.844 130.058 140.146C118.568 146.318 107.115 155.031 94.0728 153.9C81.1775 152.781 72.04 141.699 61.5765 134.205C52.1552 127.458 43.303 120.668 35.6287 112.043C26.4747 101.755 14.1793 92.4181 12.3399 78.8694C10.4719 65.1101 16.4863 50.5291 25.8691 40.156C34.7851 30.299 49.3507 28.753 61.8979 24.0806C72.5352 20.1194 82.8734 16.7142 94.0728 14.7577Z" fill="#796ACD" fill-opacity="0.63"/>
</svg>
