<svg width="18" height="19" viewBox="0 0 18 19" fill="none" xmlns="http://www.w3.org/2000/svg">
<g id="ph:twitter-logo-fill" clip-path="url(#clip0_602_405)">
<path id="Vector" d="M17.2822 6.2821L15.2058 8.35848C14.7864 13.221 10.6857 17.0002 5.77803 17.0002C4.7697 17.0002 3.93845 16.8404 3.3072 16.5252C2.79817 16.2703 2.58983 15.9974 2.53775 15.9196C2.49131 15.8499 2.46121 15.7707 2.4497 15.6878C2.43818 15.6049 2.44556 15.5204 2.47127 15.4408C2.49698 15.3611 2.54036 15.2883 2.59817 15.2277C2.65597 15.1672 2.72672 15.1205 2.80511 15.0911C2.82317 15.0842 4.48845 14.4446 5.54609 13.2272C4.95955 12.745 4.44753 12.1787 4.02664 11.5467C3.16553 10.2682 2.20164 8.04737 2.49886 4.72862C2.50828 4.62317 2.54764 4.5226 2.6123 4.43877C2.67696 4.35493 2.76423 4.29132 2.86383 4.25542C2.96344 4.21952 3.07122 4.21282 3.1745 4.23613C3.27778 4.25943 3.37225 4.31176 3.44678 4.38696C3.47108 4.41126 5.75789 6.68557 8.55372 7.42307V7.00015C8.55266 6.55668 8.64034 6.11747 8.8116 5.7084C8.98287 5.29932 9.23425 4.92865 9.55095 4.61821C9.85851 4.31107 10.2245 4.06865 10.6273 3.90525C11.03 3.74185 11.4615 3.66078 11.8961 3.66682C12.4791 3.67257 13.0507 3.82908 13.5554 4.12113C14.06 4.41318 14.4805 4.83083 14.7759 5.33349H16.8891C16.9991 5.3334 17.1066 5.36593 17.198 5.42697C17.2895 5.48801 17.3607 5.57481 17.4028 5.67638C17.4449 5.77795 17.4559 5.88972 17.4344 5.99754C17.413 6.10537 17.36 6.2044 17.2822 6.2821Z" fill="black"/>
</g>
<defs>
<clipPath id="clip0_602_405">
<rect width="17.7778" height="17.7778" fill="white" transform="translate(0.222168 0.888916)"/>
</clipPath>
</defs>
</svg>
